<?xml version="1.0" standalone="no"?><!DOCTYPE svg PUBLIC "-//W3C//DTD SVG 1.1//EN" "http://www.w3.org/Graphics/SVG/1.1/DTD/svg11.dtd"><svg t="1668687928270" class="icon" viewBox="0 0 1024 1024" version="1.1" xmlns="http://www.w3.org/2000/svg" p-id="940" xmlns:xlink="http://www.w3.org/1999/xlink" width="200" height="200"><path d="M750.048 143.552a86.4 86.4 0 0 1 78.144 49.6l50.336 107.264a134.4 134.4 0 0 1-224.064 148.512l-2.944-4.544h-2.08l-2.88 4.544a134.336 134.336 0 0 1-104.768 59.264l-6.784 0.16a134.336 134.336 0 0 1-111.584-59.424l-2.88-4.544h-2.112l-2.88 4.544a134.336 134.336 0 0 1-104.736 59.264l-6.816 0.16h-2.976v233.6a41.6 41.6 0 0 0 37.344 41.408l4.256 0.192h128a22.4 22.4 0 0 1 3.04 44.608l-3.04 0.192h-128a86.4 86.4 0 0 1-86.208-80.928l-0.192-5.44v-242.368A134.464 134.464 0 0 1 169.6 373.952c0-25.536 7.168-50.08 19.136-68.896l52.352-111.744a86.4 86.4 0 0 1 78.24-49.76z m-18.72 387.2a83.2 83.2 0 0 1 61.344 139.424 147.104 147.104 0 0 1 85.856 133.76 19.2 19.2 0 1 1-38.4 0 108.8 108.8 0 0 0-95.264-107.936 83.776 83.776 0 0 1-27.04 0.064 108.672 108.672 0 0 0-95.296 107.904 19.2 19.2 0 1 1-38.4 0 147.2 147.2 0 0 1 85.856-133.856 83.2 83.2 0 0 1 61.344-139.36z m0 38.4a44.8 44.8 0 0 0-11.52 88.128 149.248 149.248 0 0 1 23.04-0.064 44.8 44.8 0 0 0-11.52-88.032z m18.72-380.8H319.328a41.6 41.6 0 0 0-37.664 24l-53.664 114.112a89.6 89.6 0 0 0 156.96 85.92 22.4 22.4 0 0 1 20.256-12.8h28.576a22.4 22.4 0 0 1 20.224 12.8 89.6 89.6 0 0 0 161.952 0 22.4 22.4 0 0 1 20.224-12.8h28.608a22.4 22.4 0 0 1 20.224 12.8 89.6 89.6 0 0 0 170.56-38.4c0-17.696-5.12-34.56-16.064-51.744l-51.84-110.016a41.6 41.6 0 0 0-37.632-23.872z" fill="#7dc5eb" p-id="941"></path></svg>